# xmcd
#
# Track frame offsets: 
#        150
#        11649
#        14988
#        33013
#        51491
#        68943
#        90416
#        107821
#        126878
#        132100
#        151187
#        169979
#
# Disc length: 2617 seconds
#
# Revision: 0
# Processed by: cddbd v1.5.2PL0 Copyright (c) Steve Scherf et al.
# Submitted via: ExactAudioCopy v0.99pb4
#
DISCID=9e0a370c
DTITLE=Aaron Garner - There and Back: A Live Recording
DYEAR=2008
DGENRE=Country
TTITLE0=It's A Good Life
TTITLE1=Thank You/"The Experiment" (dialogue)
TTITLE2=New Eyes
TTITLE3=Whiskeygirl Of Mine
TTITLE4=No Way But Up To Go
TTITLE5=Staggerin' Man Blues
TTITLE6=Stand and Fight
TTITLE7=Make It Through
TTITLE8=Album Concept Story (dialogue)
TTITLE9=Wide Western Sky
TTITLE10=Rollin' Home
TTITLE11=The Great Subdivide
EXTD=
EXTT0=
EXTT1=
EXTT2=
EXTT3=
EXTT4=
EXTT5=
EXTT6=
EXTT7=
EXTT8=
EXTT9=
EXTT10=
EXTT11=
PLAYORDER=
